<?xml version="1.0" encoding="UTF-8"?>
<svg xmlns="http://www.w3.org/2000/svg" version="1.1" viewBox="0 0 512 512">
  <!-- Generator: Adobe Illustrator 29.0.1, SVG Export Plug-In . SVG Version: 2.1.0 Build 192)  -->
  <defs>
    <style>
      .st0 {
        fill: #000095;
      }

      .st1 {
        fill: #fff;
      }

      .st2 {
        fill: #fe0000;
      }
    </style>
  </defs>
  <g id="Capa_1" image-rendering="optimizeQuality" shape-rendering="geometricPrecision" text-rendering="geometricPrecision">
    <g>
      <path class="st2" d="M2.4,258.6h285.8V4c125.4,15.6,222.5,122.6,222.5,252.2s-113.8,254.1-254.1,254.1S3.7,397.8,2.4,258.6h0Z"/>
      <path class="st0" d="M2.4,258.6h285.8V4c-10.5-1.3-21.1-2-31.7-2C116.2,2,2.4,115.8,2.4,256.1s0,1.6,0,2.4h0Z"/>
      <path class="st1" d="M212.9,223.1l-9.8-36.4c-4.9,4.4-10.6,7.7-16.9,9.7l26.6,26.6h0ZM212.9,152.5c0-22.6-18.3-40.8-40.7-40.8s-40.8,18.3-40.8,40.8,18.3,40.7,40.8,40.7c22.5,0,40.7-18.1,40.7-40.6,0,0,0-.1,0-.2h0ZM206.4,183.5l36.3,9.8-26.6-26.6c-2,6.2-5.3,12-9.7,16.8ZM217.3,162.2l36.5-9.7-36.5-9.7c.7,3.1,1,6.4,1,9.7s-.4,6.6-1,9.7h0ZM216.1,138.3l26.7-26.6-36.4,9.8c4.4,4.9,7.7,10.6,9.7,16.8h0ZM203.1,118.3l9.8-36.4-26.6,26.7c6.2,2,12,5.3,16.8,9.7ZM181.8,107.3l-9.7-36.5-9.7,36.5c3.1-.7,6.4-1,9.7-1s6.6.4,9.7,1ZM157.9,108.5l-26.7-26.7,9.9,36.5c4.9-4.4,10.6-7.8,16.8-9.8h0ZM137.9,121.5l-36.4-9.8,26.6,26.6c2-6.3,5.3-12,9.8-16.9h0ZM127,142.8l-36.5,9.7,36.5,9.7c-.7-3.2-1-6.4-1-9.7,0-3.3.4-6.6,1-9.7ZM128.2,166.7l-26.7,26.6,36.4-9.8c-4.4-4.9-7.7-10.6-9.7-16.8ZM141.1,186.7l-9.8,36.4,26.6-26.7c-6.2-2-12-5.3-16.8-9.7ZM162.4,197.7l9.7,36.5,9.7-36.5c-3.2.7-6.5,1-9.7,1-3.3,0-6.5-.3-9.7-1Z"/>
    </g>
  </g>
</svg>